<?xml version="1.0" encoding="UTF-8" standalone="no"?>
<svg width="80px" height="38px" viewBox="0 0 80 38" version="1.1" xmlns="http://www.w3.org/2000/svg" xmlns:xlink="http://www.w3.org/1999/xlink">
    <!-- Generator: Sketch 3.7.2 (28276) - http://www.bohemiancoding.com/sketch -->
    <defs>
        <polygon id="path-1" points="0 37.9094077 79.9409059 37.9094077 79.9409059 0.268989547 0 0.268989547"></polygon>
    </defs>
    <g id="Page-2" stroke="none" stroke-width="1" fill="none" fill-rule="evenodd">
        <g id="mobile_zip" transform="translate(-16.000000, -80.000000)">
            <g id="Page-1" transform="translate(16.000000, 80.000000)">
                <polygon id="Fill-1" fill="#FEFEFE" points="0.0136585366 25.426899 25.2150523 25.426899 25.2150523 0.278466899 0.0136585366 0.278466899"></polygon>
                <polygon id="Fill-2" fill="#F5811F" points="0.422578397 25.0177003 24.7414634 25.0177003 24.7414634 0.699372822 0.422578397 0.699372822"></polygon>
                <g id="Group-55" transform="translate(0.000000, 0.009756)">
                    <path d="M22.8118188,23.8191498 C22.8118188,23.4275122 23.1304251,23.137338 23.5061742,23.137338 C23.8791359,23.137338 24.1974634,23.4275122 24.1974634,23.8191498 C24.1974634,24.2155261 23.8791359,24.5051429 23.5061742,24.5051429 C23.1304251,24.5051429 22.8118188,24.2155261 22.8118188,23.8191498 L22.8118188,23.8191498 Z M23.5061742,24.3914146 C23.8155819,24.3914146 24.0597631,24.1491847 24.0597631,23.8191498 C24.0597631,23.4958049 23.8155819,23.2516237 23.5061742,23.2516237 C23.1931429,23.2516237 22.9492404,23.4958049 22.9492404,23.8191498 C22.9492404,24.1491847 23.1931429,24.3914146 23.5061742,24.3914146 L23.5061742,24.3914146 Z M23.361784,24.2155261 L23.2424808,24.2155261 L23.2422021,23.4275122 L23.5426899,23.4275122 C23.7283345,23.4275122 23.8211568,23.4958049 23.8211568,23.6513449 C23.8211568,23.7923902 23.7319582,23.8542718 23.6168362,23.8682091 L23.8412265,24.2155261 L23.7077073,24.2155261 L23.4994843,23.8740627 L23.3612265,23.8740627 L23.361784,24.2155261 L23.361784,24.2155261 Z M23.5045017,23.7723206 C23.6059652,23.7723206 23.6962787,23.7647944 23.6962787,23.6440976 C23.6962787,23.5462578 23.6079164,23.5284181 23.5245714,23.5284181 L23.3612265,23.5284181 L23.361784,23.7723206 L23.5045017,23.7723206 L23.5045017,23.7723206 Z" id="Fill-3" fill="#FEFEFE"></path>
                    <path d="M7.74483624,12.928892 C7.5296446,13.3868711 7.71724042,13.6307735 7.89675261,13.8102857 L11.6154983,17.5293101 C11.7947317,17.709101 12.0394704,17.8955819 12.4977282,17.6809477 L12.9138955,18.0979512 C11.2589826,19.4799721 9.32253659,18.961784 7.89285017,17.5332125 C6.46455749,16.1043624 5.94636934,14.1670801 7.32894774,12.5116098 L7.74483624,12.928892 Z M12.8205157,17.3592753 C13.0351498,16.9012962 12.8489477,16.656 12.6680418,16.4764878 L8.95041115,12.7574634 C8.77034146,12.5776725 8.52588153,12.3917491 8.06790244,12.6061045 L7.65145645,12.190216 C9.30581185,10.8076376 11.2433728,11.3252683 12.6725017,12.754676 C14.1005157,14.1835261 14.6195401,16.1202509 13.2364042,17.7754425 L12.8205157,17.3592753 Z" id="Fill-5" fill="#FEFEFE"></path>
                    <path d="M20.7371986,9.6144669 C20.6365714,9.51523345 20.5077909,9.51356098 20.3857003,9.5790662 C20.0556655,9.75077352 20.0208223,9.70032056 19.7543415,9.43467596 L15.9918328,5.67272474 C15.7253519,5.40680139 15.6746202,5.3714007 15.848,5.04025087 C15.9112753,4.91899652 15.9118328,4.78965854 15.8112056,4.68903136 C15.6029826,4.48136585 15.352669,4.70352613 15.3247944,4.73195819 L13.4318328,6.62296864 L14.9774774,9.48680139 L14.9627038,9.49990244 L11.9929477,8.06380488 L10.1738537,9.88262021 C10.0882787,9.96819512 9.87225087,10.1828293 10.0944111,10.4058258 C10.2669547,10.5786481 10.474899,10.3994146 10.5677213,10.3205296 C10.6965017,10.2056864 10.8124599,10.2633868 10.9841672,10.3065923 C11.1346899,10.3428293 11.2782439,10.4147456 11.4217979,10.4874983 L17.3624251,13.433561 L17.5703693,13.2261742 L14.6636098,7.85530314 L17.9982439,11.1893798 C18.2641672,11.4555819 18.3146202,11.4920976 18.1426341,11.8204599 C18.0774077,11.9433868 18.0782439,12.0721672 18.1794286,12.1725157 C18.3868153,12.3801812 18.6374077,12.1591359 18.6661185,12.1298676 L20.6948293,10.1022718 C20.7240976,10.0732822 20.9445854,9.82241115 20.7371986,9.6144669" id="Fill-7" fill="#FEFEFE"></path>
                    <path d="M15.1250174,13.4023415 L13.890453,12.1674983 L12.3049477,11.3836655 L12.2907317,11.3981603 L14.7094077,13.81823 C15.4924042,14.8300767 14.7542857,15.0087526 15.0634146,15.3176028 C15.2855749,15.5394843 15.5645993,15.2317491 15.6432056,15.1517491 L16.4602091,14.3361394 C16.5388153,14.2572544 16.845993,13.9793449 16.6232753,13.7560697 C16.3155401,13.447777 16.1374216,14.1856167 15.1250174,13.4023415" id="Fill-9" fill="#FEFEFE"></path>
                    <path d="M11.2270941,20.9207526 C11.9050035,20.2258397 12.9544808,20.1293937 14.0449338,21.123122 C15.0378258,22.0262578 14.9165714,23.2702997 14.2464669,23.9398467 L14.0125993,23.7059791 C14.226676,23.4275122 14.0081394,23.1847247 13.8545505,23.0319721 L12.1352474,21.3121115 C11.9819373,21.1588014 11.7397073,20.941101 11.4617979,21.154899 L11.2270941,20.9207526 Z" id="Fill-11" fill="#FEFEFE"></path>
                    <path d="M12.7322927,19.4156934 L13.7976585,18.3500488 L16.8173101,21.3694216 L15.7516655,22.4350662 C15.7354983,22.4509547 15.5941742,22.5761115 15.477101,22.4595958 C15.4207944,22.402453 15.4202369,22.3299791 15.4567526,22.2614077 C15.5534774,22.0760418 15.5256028,22.0556934 15.3761951,21.906007 L13.2607944,19.7911638 C13.1119443,19.6417561 13.0907596,19.613324 12.90623,19.70977 C12.837101,19.7468432 12.7643484,19.7468432 12.7077631,19.6902578 C12.5906899,19.5734634 12.7164042,19.4315819 12.7322927,19.4156934 L12.7322927,19.4156934 Z M13.9794007,18.1683066 L14.8797491,17.2682369 L15.6989826,18.0874704 C15.719331,18.1078188 15.7926411,18.1886551 15.6708293,18.3101882 C15.6022578,18.3790383 15.5420488,18.3581324 15.4609338,18.3177143 C15.028878,18.0961115 14.6255331,18.1041951 14.213547,18.402453 L13.9794007,18.1683066 Z M16.7649059,20.9538118 C17.0517352,20.5864251 17.0798885,20.11423 16.8652544,19.6810592 C16.8337561,19.5932544 16.7927805,19.5046132 16.8652544,19.4315819 C16.9945923,19.3028014 17.1035819,19.4357631 17.1200279,19.4519303 L17.927554,20.2594564 L16.9987735,21.1876794 L16.7649059,20.9538118 Z M15.3274146,19.5160418 C15.4525714,19.3028014 15.3722927,19.0683763 15.2552195,18.8788293 C15.206439,18.7899094 15.1654634,18.7007108 15.2507596,18.6159721 C15.3761951,18.4913728 15.5013519,18.6563902 15.5336864,18.689561 L16.4056028,19.5614774 C16.4379373,19.5932544 16.6032334,19.7184111 16.4777979,19.8438467 C16.3936167,19.9285854 16.3044181,19.8878885 16.2154983,19.8393868 C16.0259512,19.7228711 15.7926411,19.6417561 15.5782857,19.7671916 L15.3274146,19.5160418 Z" id="Fill-13" fill="#FEFEFE"></path>
                    <path d="M16.4374355,15.710216 C16.8212683,15.3269408 17.0874704,15.1404599 17.3865645,15.0601812 C17.8632195,14.9392056 18.2464948,15.088892 18.5865645,15.4267317 C18.9246829,15.7659652 19.0743693,16.1500767 18.9533937,16.626453 C18.8717213,16.925547 18.6863554,17.1925854 18.3025226,17.5753031 L18.0686551,17.3417143 C18.2621045,17.0585087 18.1093519,16.8809477 17.9114425,16.6824808 L17.3023833,16.0734216 C17.1200836,15.8922369 16.9182718,15.7623415 16.6715819,15.9440836 L16.4374355,15.710216 Z M15.719108,17.3339094 C15.5694216,17.1845017 15.5496307,17.1563484 15.3631498,17.2527944 C15.2948571,17.2895889 15.2221045,17.2887526 15.1655192,17.2318885 C15.0487247,17.1153728 15.1738815,16.97377 15.18977,16.9576028 L16.2559721,15.8925157 L18.8234983,18.4600418 C18.9723484,18.6086132 18.9926969,18.6378815 19.177784,18.5403206 C19.2471916,18.5043624 19.3199443,18.5040836 19.3765296,18.5603902 C19.4936028,18.6774634 19.3687247,18.8187875 19.352,18.834676 L18.2097003,19.9769756 C18.1940906,19.9939791 18.0839861,20.0868014 17.9674704,19.970007 C17.9103275,19.9131429 17.9008502,19.8507038 17.9368084,19.7818537 C18.0335331,19.5962091 17.9836376,19.5981603 17.83423,19.4481951 L15.719108,17.3339094 Z" id="Fill-15" fill="#FEFEFE"></path>
                    <path d="M18.9961812,13.4993728 C18.8749268,13.75777 18.9797352,13.8946341 19.0806411,13.9955401 L21.1717909,16.0864111 C21.2724181,16.1873171 21.4101185,16.2926829 21.6687944,16.1711498 L21.9021045,16.4055749 C20.9702578,17.184669 19.8803624,16.894216 19.0772962,16.0905923 C18.2733937,15.2872474 17.9829408,14.1976307 18.7623136,13.2649477 L18.9961812,13.4993728 Z M21.8499791,15.9899652 C21.9709547,15.7315679 21.8664251,15.5947038 21.7646829,15.4932404 L19.6738118,13.4026481 C19.5731847,13.3009059 19.4360418,13.1960976 19.1773659,13.3170732 L18.943777,13.0834843 C19.8764599,12.3041115 20.9663554,12.595122 21.7685854,13.3984669 C22.5727666,14.2018118 22.8640557,15.2908711 22.0849617,16.2238328 L21.8499791,15.9899652 Z" id="Fill-17" fill="#FEFEFE"></path>
                    <path d="M3.33499652,9.89756098 L4.26461324,8.96766551 L6.67715679,11.3807666 C6.8176446,11.5209756 6.83687805,11.5480139 7.01165157,11.4565854 C7.07576307,11.4222997 7.14405575,11.4222997 7.19701742,11.4755401 C7.3074007,11.5853659 7.18949129,11.7183275 7.17471777,11.7336585 L6.10098955,12.8076655 C6.08565854,12.8227178 5.95297561,12.9400697 5.84259233,12.8302439 C5.78990941,12.7770035 5.78990941,12.7087108 5.82419512,12.6440418 C5.9150662,12.4698258 5.88830662,12.4508711 5.74781882,12.3103833 L3.33499652,9.89756098 Z M5.86544948,9.1343554 C5.88078049,9.14968641 5.96412544,9.2558885 5.85039721,9.36989547 C5.74419512,9.47609756 5.62684321,9.39637631 5.53179094,9.32445993 C5.29625087,9.15749129 4.99269686,8.96013937 4.65513589,9.01700348 L4.43520557,8.79679443 L4.98182578,8.25101045 L5.86544948,9.1343554 Z M2.61750523,10.6144948 L3.16440418,10.0684321 L3.38405575,10.2880836 C3.32747038,10.6259233 3.52454355,10.9291986 3.6915122,11.1644599 C3.76370732,11.2592334 3.84314983,11.3771429 3.73722648,11.4833449 C3.62321951,11.5970732 3.51673868,11.5134495 3.50196516,11.4983972 L2.61750523,10.6144948 Z" id="Fill-19" fill="#FEFEFE"></path>
                    <path d="M8.65070383,9.40819512 C8.79091289,9.54812544 8.8098676,9.57460627 8.98408362,9.48373519 C9.04903136,9.44944948 9.1170453,9.44944948 9.17000697,9.50241115 C9.27983275,9.61251568 9.16220209,9.7457561 9.14714983,9.76080836 L8.07397909,10.8348153 C8.05864808,10.8498676 7.92568641,10.9672195 7.81586063,10.857115 C7.76262021,10.8041533 7.76262021,10.7358606 7.79662718,10.6711916 C7.887777,10.4966969 7.86129617,10.4777422 7.72108711,10.3378118 L5.73251568,8.34951916 C5.59202787,8.20903136 5.57335192,8.18255052 5.39913589,8.2734216 C5.3344669,8.30742857 5.26617422,8.30742857 5.2129338,8.2544669 C5.10310801,8.14436237 5.22045993,8.01167944 5.23606969,7.99634843 L6.31007666,6.92262021 C6.32457143,6.90756794 6.4575331,6.78965854 6.56763763,6.89976307 C6.62087805,6.95328223 6.62087805,7.02129617 6.58631359,7.08596516 C6.49572125,7.26045993 6.52220209,7.27941463 6.66241115,7.41962369 L8.65070383,9.40819512 Z M8.24847387,7.99634843 L7.91425784,8.33028571 L7.69460627,8.11007666 L8.02826481,7.77641812 L7.16721951,6.91537282 C7.02673171,6.77432753 7.00749826,6.74812544 6.83328223,6.83955401 C6.76861324,6.87328223 6.7005993,6.87328223 6.64708014,6.82004181 C6.53697561,6.71021603 6.65488502,6.5775331 6.67049477,6.56220209 L7.74366551,5.48847387 C7.75899652,5.47314286 7.89223693,5.3555122 8.00206272,5.46589547 C8.05474564,5.51885714 8.05474564,5.58687108 8.02073868,5.65181882 C7.92958885,5.82659233 7.95634843,5.84498955 8.09683624,5.9857561 L10.0842927,7.97377003 C10.2250592,8.11397909 10.2440139,8.14073868 10.4190662,8.04958885 C10.482899,8.01558188 10.5511916,8.01558188 10.6044321,8.06854355 C10.7142578,8.17864808 10.5971847,8.31133101 10.5815749,8.32666202 L9.50812544,9.4001115 C9.49307317,9.41544251 9.35983275,9.53307317 9.25000697,9.42296864 C9.19676655,9.37000697 9.19676655,9.30143554 9.23133101,9.23732404 C9.32192334,9.06255052 9.29544251,9.04359582 9.1549547,8.90338676 L8.24847387,7.99634843 Z" id="Fill-21" fill="#FEFEFE"></path>
                    <path d="M8.10118467,5.13073171 L9.10327526,4.12919861 L11.9411847,6.96738676 L10.9390941,7.96891986 C10.9243206,7.98397213 10.7916376,8.10132404 10.6812544,7.991777 C10.6280139,7.93853659 10.6280139,7.86996516 10.6622997,7.80585366 C10.7531707,7.63135889 10.7269686,7.61212544 10.5864808,7.47163763 L8.59818815,5.48390244 C8.45825784,5.34369338 8.43902439,5.31637631 8.26425087,5.40780488 C8.19986063,5.4415331 8.13184669,5.4415331 8.07888502,5.38857143 C7.968223,5.27874564 8.0861324,5.14606272 8.10118467,5.13073171 L8.10118467,5.13073171 Z M9.27358885,3.95832753 L10.1198606,3.11261324 L10.8903136,3.88250871 C10.9089895,3.90174216 10.9770035,3.97728223 10.863554,4.0912892 C10.798885,4.15567944 10.7422997,4.13644599 10.6659233,4.09881533 C10.2600697,3.89031359 9.88069686,3.89783972 9.49407666,4.17825784 L9.27358885,3.95832753 Z M11.8915679,6.57658537 C12.161115,6.23121951 12.1878746,5.78745645 11.9860627,5.38132404 C11.9556794,5.29770035 11.9183275,5.2143554 11.9860627,5.14606272 C12.1081533,5.02452962 12.210453,5.14996516 12.2252265,5.16529617 L12.9842509,5.92376307 L12.111777,6.79623693 L11.8915679,6.57658537 Z M10.541324,5.22550523 C10.6583972,5.02452962 10.5831359,4.8045993 10.4724739,4.62620209 C10.4273171,4.54285714 10.3891289,4.45923345 10.4691289,4.37979094 C10.5864808,4.26188153 10.7041115,4.4174216 10.734216,4.44808362 L11.554007,5.26731707 C11.5843902,5.29770035 11.7399303,5.41533101 11.6222997,5.53324042 C11.5422997,5.61268293 11.4592334,5.57449477 11.375331,5.52933798 C11.1972125,5.4195122 10.9772822,5.34341463 10.7760279,5.46076655 L10.541324,5.22550523 Z" id="Fill-23" fill="#FEFEFE"></path>
                    <path d="M10.2698258,20.0817003 C10.1686411,19.9813519 10.0401394,19.9807944 9.91804878,20.0449059 C9.58801394,20.2177282 9.55233449,20.167554 9.2866899,19.9010732 L5.52445993,16.1382857 C5.25909408,15.8729199 5.20836237,15.8372404 5.38118467,15.5074843 C5.44557491,15.3859512 5.44501742,15.2574495 5.34355401,15.1557073 C5.13616725,14.9491568 4.88585366,15.1702021 4.85770035,15.1994704 L2.83010453,17.2265087 C2.80055749,17.2560557 2.57839721,17.5055331 2.78689895,17.7137561 C2.88641115,17.8143833 3.01686411,17.8152195 3.13756098,17.7505505 C3.46787456,17.579122 3.50383275,17.6290174 3.76891986,17.8943833 L5.39930314,19.5244878 L4.76933798,20.1552892 L5.18466899,20.5706202 L5.81602787,19.9400976 L7.53198606,21.6566132 C7.79763066,21.9225366 7.84780488,21.9584948 7.67498258,22.2876934 C7.61142857,22.409784 7.61142857,22.5382857 7.71205575,22.6400279 C7.92,22.8474146 8.17087108,22.6258118 8.19986063,22.5962648 L10.2271777,20.569784 C10.2558885,20.5410732 10.4774913,20.2899233 10.2698258,20.0817003" id="Fill-25" fill="#FEFEFE"></path>
                    <path d="M7.56181185,22.789547 C7.46146341,22.6889199 7.33240418,22.6889199 7.21087108,22.7533101 C6.88055749,22.9258537 6.84487805,22.8756794 6.5795122,22.6089199 L2.81644599,18.8480836 C2.55052265,18.5816028 2.50006969,18.5456446 2.67289199,18.215331 C2.73756098,18.0932404 2.73616725,17.9647387 2.63581882,17.8638328 C2.42787456,17.6567247 2.17756098,17.8791638 2.14912892,17.9067596 L0.420627178,19.6355401 L0.420627178,20.4625784 C0.423972125,20.4609059 0.426759582,20.4595122 0.43010453,20.4581185 C0.759581882,20.2864111 0.794703833,20.3363066 1.06090592,20.6030662 L4.82369338,24.3650174 C5.08961672,24.6303833 5.1389547,24.666899 4.96780488,24.9958188 C4.96557491,25.0002787 4.96390244,25.0047387 4.96195122,25.0105923 L5.78815331,25.0105923 L7.51944251,23.2773519 C7.54759582,23.2491986 7.76947735,22.9980488 7.56181185,22.789547" id="Fill-27" fill="#FEFEFE"></path>
                    <path d="M12.7484321,24.9208084 C12.7336585,24.9517491 12.718885,24.9804599 12.7063415,25.0086132 L13.1777003,25.0086132 L14.0652265,24.1216446 L11.0452962,21.1028293 L10.0119861,22.1358606 C9.93170732,22.2158606 9.8430662,22.3298676 9.94731707,22.434676 C10.0487805,22.5353031 10.1379791,22.4703554 10.2464111,22.4179512 C10.3475958,22.3658258 10.4476655,22.4826202 10.5084321,22.543108 L12.623554,24.6579512 C12.6845993,24.7187178 12.8016725,24.8207387 12.7484321,24.9208084" id="Fill-29" fill="#FEFEFE"></path>
                    <path d="M20.8829547,11.7336585 L20.6485296,11.4995122 L20.0679024,12.0809756 L21.0078328,13.0211847 C21.0237213,13.0379094 21.1371707,13.1257143 21.2578676,13.0050174 C21.3710383,12.8921254 21.2862997,12.7672474 21.2093659,12.6660627 C21.0320836,12.4154704 20.8224669,12.0935192 20.8829547,11.7336585" id="Fill-31" fill="#FEFEFE"></path>
                    <path d="M23.1678328,10.7078188 C23.2681812,10.7850314 23.3936167,10.8692125 23.50623,10.7565993 C23.6277631,10.6353449 23.5388432,10.5230105 23.5223972,10.506007 L22.5819094,9.56579791 L22.000446,10.1478188 L22.2351498,10.3816864 C22.594453,10.3209199 22.9175192,10.5308153 23.1678328,10.7078188" id="Fill-33" fill="#FEFEFE"></path>
                    <path d="M24.7407108,12.9774216 C24.5561812,13.0738676 24.535554,13.0457143 24.3864251,12.8963066 L21.8194564,10.3287805 L20.8293519,11.3180488 L23.3985505,13.8855749 C23.5462857,14.0347038 23.575554,14.0547735 23.477993,14.2406969 C23.4417561,14.309547 23.4417561,14.3814634 23.4986202,14.4380488 C23.6154146,14.5554007 23.7570174,14.4302439 23.7734634,14.4140767 L24.7407108,13.4465505 L24.7407108,12.9774216 Z" id="Fill-35" fill="#FEFEFE"></path>
                    <path d="M20.5921394,2.52236934 C20.4421742,2.67261324 20.5149268,2.83121951 20.5993868,2.98843206 C20.8078885,3.32627178 20.9522787,3.74216028 20.7303972,4.12181185 L21.175554,4.5666899 C21.5552056,4.34592334 21.9710941,4.48919861 22.3086551,4.69714286 C22.4669826,4.78243902 22.6247526,4.85574913 22.775554,4.70494774 C22.9971568,4.48334495 22.7028014,4.25979094 22.6456585,4.20236934 L21.0952753,2.65254355 C21.0381324,2.59512195 20.8140209,2.3010453 20.5921394,2.52236934" id="Fill-37" fill="#FEFEFE"></path>
                    <path d="M16.1186899,3.93809059 C16.0897003,3.96596516 15.8675401,4.21795122 16.0752056,4.42561672 C16.1752753,4.5262439 16.304892,4.5262439 16.4269826,4.46157491 C16.7567387,4.28958885 16.7926969,4.34032056 17.0575052,4.60512892 L20.8208502,8.36735889 C21.087331,8.63383972 21.1363902,8.66979791 20.9649617,8.99927526 C20.9005714,9.12080836 20.9005714,9.25042509 21.0009199,9.35133101 C21.2085854,9.55899652 21.4605714,9.33683624 21.4890035,9.30840418 L23.3805714,7.416 L18.0085854,2.04680139 L16.1186899,3.93809059 Z" id="Fill-39" fill="#FEFEFE"></path>
                    <path d="M24.7407108,4.83746341 L23.9145087,4.01181882 C23.8852404,3.98227178 23.6920697,3.74505923 23.4623833,3.97474564 C23.3336028,4.1026899 23.4055192,4.26129617 23.462662,4.4190662 C23.8439861,5.18673171 23.7957631,6.02547735 23.2867735,6.67802091 L23.7021045,7.09390941 L24.7407108,6.05641812 L24.7407108,4.83746341 Z" id="Fill-41" fill="#FEFEFE"></path>
                    <path d="M21.3867596,1.58352613 L20.4919861,0.688473868 L19.3672474,0.688473868 L18.3311498,1.72457143 L18.7481533,2.14045993 C19.4793031,1.61084321 20.1970732,1.59579094 20.9644599,1.99272474 C21.1071777,2.06408362 21.215331,2.09976307 21.3374216,1.97739373 C21.552892,1.76387456 21.423554,1.61920557 21.3867596,1.58352613" id="Fill-43" fill="#FEFEFE"></path>
                    <path d="M28.1032195,19.0454355 C28.1032195,19.9881533 28.5798746,21.5875958 31.3553449,21.5875958 C32.022662,21.5875958 34.3529756,21.3863415 34.3529756,19.0983972 C34.3529756,17.7319861 33.3996655,17.3082927 32.3616167,17.0540767 L30.5076794,16.5986063 C30.1899094,16.5244599 29.702662,16.3973519 29.702662,15.8039024 C29.702662,15.1154007 30.4229408,14.8929617 31.0269826,14.8929617 C32.4145784,14.8929617 32.5416864,15.6979791 32.5840557,16.0369338 L34.1093519,16.0369338 C34.0987596,15.1048084 33.4738118,13.5795122 31.1434983,13.5795122 C28.6752056,13.5795122 28.2197352,15.0730314 28.2197352,15.9204181 C28.2197352,17.5942857 29.4060767,17.8696864 30.6347875,18.1556794 L31.450676,18.3463415 C32.2556934,18.5370035 32.8276794,18.6958885 32.8276794,19.2890592 C32.8276794,20.0940767 31.990885,20.2741463 31.2388293,20.2741463 C29.8509547,20.2741463 29.639108,19.4691289 29.6285157,19.0454355 L28.1032195,19.0454355 Z M41.0476098,13.7807666 L35.4545784,13.7807666 L35.4545784,21.3863415 L41.2276794,21.3863415 L41.2276794,20.041115 L37.0116516,20.041115 L37.0116516,18.0709408 L40.7192474,18.0709408 L40.7192474,16.7257143 L37.0116516,16.7257143 L37.0116516,15.125993 L41.0476098,15.125993 L41.0476098,13.7807666 Z M42.4140209,21.3863415 L43.9710941,21.3863415 L43.9710941,18.4098955 L45.6129059,18.4098955 C46.7889338,18.4098955 46.8524878,18.8124042 46.8524878,19.850453 C46.8524878,20.6342857 46.9160418,21.0262021 47.0219652,21.3863415 L48.7802927,21.3863415 L48.7802927,21.1850871 C48.441338,21.0579791 48.441338,20.7825784 48.441338,19.6703833 C48.441338,18.2510105 48.1023833,18.0179791 47.4774355,17.7425784 C48.2294913,17.4883624 48.6531847,16.7680836 48.6531847,15.9310105 C48.6531847,15.2742857 48.282453,13.7807666 46.2590383,13.7807666 L42.4140209,13.7807666 L42.4140209,21.3863415 Z M43.9710941,17.128223 L43.9710941,15.094216 L45.9518606,15.094216 C46.8842648,15.094216 47.0643345,15.6873868 47.0643345,16.0898955 C47.0643345,16.84223 46.6618258,17.128223 45.8353449,17.128223 L43.9710941,17.128223 Z M52.521338,19.5432753 L52.5001533,19.5432753 L50.8686551,13.7807666 L49.1632892,13.7807666 L51.7269129,21.3863415 L53.2416167,21.3863415 L55.8261463,13.7807666 L54.1737422,13.7807666 L52.521338,19.5432753 Z M56.5993868,21.3863415 L58.1882369,21.3863415 L58.1882369,13.7807666 L56.5993868,13.7807666 L56.5993868,21.3863415 Z M66.0059373,16.2702439 C65.9211986,15.1471777 64.9993868,13.5795122 62.7220348,13.5795122 C60.762453,13.5795122 59.2265645,14.935331 59.2265645,17.5942857 C59.2265645,20.2211847 60.6777143,21.5875958 62.7008502,21.5875958 C64.6074704,21.5875958 65.6881672,20.4330314 66.0059373,18.7806272 L64.4168084,18.7806272 C64.2261463,19.7127526 63.6117909,20.2105923 62.7326272,20.2105923 C61.3874007,20.2105923 60.8471916,18.9818815 60.8471916,17.6154704 C60.8471916,15.4649477 61.9699791,14.9565157 62.7326272,14.9565157 C64.0460767,14.9565157 64.2897003,15.8144948 64.4168084,16.2702439 L66.0059373,16.2702439 Z M72.7002927,13.7807666 L67.1072613,13.7807666 L67.1072613,21.3863415 L72.8803624,21.3863415 L72.8803624,20.041115 L68.6646132,20.041115 L68.6646132,18.0709408 L72.3719303,18.0709408 L72.3719303,16.7257143 L68.6646132,16.7257143 L68.6646132,15.125993 L72.7002927,15.125993 L72.7002927,13.7807666 Z M73.6747875,19.0454355 C73.6747875,19.9881533 74.1514425,21.5875958 76.9269129,21.5875958 C77.59423,21.5875958 79.9245436,21.3863415 79.9245436,19.0983972 C79.9245436,17.7319861 78.9712334,17.3082927 77.9331847,17.0540767 L76.0792474,16.5986063 C75.7614774,16.5244599 75.27423,16.3973519 75.27423,15.8039024 C75.27423,15.1154007 75.9945087,14.8929617 76.5985505,14.8929617 C77.9861463,14.8929617 78.1132544,15.6979791 78.1556237,16.0369338 L79.6809199,16.0369338 C79.6703275,15.1048084 79.0453798,13.5795122 76.7150662,13.5795122 C74.2467735,13.5795122 73.7913031,15.0730314 73.7913031,15.9204181 C73.7913031,17.5942857 74.9776446,17.8696864 76.2063554,18.1556794 L77.0222439,18.3463415 C77.8272613,18.5370035 78.3992474,18.6958885 78.3992474,19.2890592 C78.3992474,20.0940767 77.562453,20.2741463 76.8103972,20.2741463 C75.4225226,20.2741463 75.210676,19.4691289 75.2000836,19.0454355 L73.6747875,19.0454355 Z" id="Fill-45" fill="#221F20"></path>
                    <path d="M32.6449338,8.29744948 L32.6449338,11.7084599 L34.233784,11.7084599 L34.233784,4.10260627 L32.6449338,4.10260627 L32.6449338,6.984 L29.6788014,6.984 L29.6788014,4.10260627 L28.0899512,4.10260627 L28.0899512,11.7084599 L29.6788014,11.7084599 L29.6788014,8.29744948 L32.6449338,8.29744948 Z M35.3459791,7.9055331 C35.3459791,11.4754286 37.9940627,11.9097143 39.0003345,11.9097143 C40.006885,11.9097143 42.6549686,11.4754286 42.6549686,7.9055331 C42.6549686,4.33563763 40.006885,3.90135192 39.0003345,3.90135192 C37.9940627,3.90135192 35.3459791,4.33563763 35.3459791,7.9055331 L35.3459791,7.9055331 Z M36.9348293,7.9055331 C36.9348293,5.77647387 38.1423554,5.2465784 39.0003345,5.2465784 C39.8585923,5.2465784 41.0661185,5.77647387 41.0661185,7.9055331 C41.0661185,10.0345923 39.8585923,10.5642091 39.0003345,10.5642091 C38.1423554,10.5642091 36.9348293,10.0345923 36.9348293,7.9055331 L36.9348293,7.9055331 Z M51.1188014,4.10260627 L48.8199861,4.10260627 L47.4641672,10.0981463 L47.4429826,10.0981463 L46.0659791,4.10260627 L43.7459791,4.10260627 L43.7459791,11.7084599 L45.2291847,11.7084599 L45.2291847,5.35278049 L45.2503693,5.35278049 L46.6379652,11.7084599 L48.1950383,11.7084599 L49.6144111,5.35278049 L49.6355958,5.35278049 L49.6355958,11.7084599 L51.1188014,11.7084599 L51.1188014,4.10260627 Z M58.1309268,4.10260627 L52.5378955,4.10260627 L52.5378955,11.7084599 L58.3109965,11.7084599 L58.3109965,10.3629547 L54.0952474,10.3629547 L54.0952474,8.39278049 L57.8025645,8.39278049 L57.8025645,7.04755401 L54.0952474,7.04755401 L54.0952474,5.4481115 L58.1309268,5.4481115 L58.1309268,4.10260627 Z" id="Fill-47" fill="#221F20"></path>
                    <mask id="mask-2" fill="white">
                        <use xlink:href="#path-1"></use>
                    </mask>
                    <g id="Clip-50"></g>
                    <polygon id="Fill-49" fill="#221F20" mask="url(#mask-2)" points="28.0610453 25.4171429 79.9247387 25.4171429 79.9247387 24.2993728 28.0610453 24.2993728"></polygon>
                    <polygon id="Fill-51" fill="#221F20" mask="url(#mask-2)" points="28.0610453 1.38675958 79.9247387 1.38675958 79.9247387 0.268989547 28.0610453 0.268989547"></polygon>
                    <path d="M30.9498537,35.408223 C30.782885,35.6839024 30.5964042,35.8759582 30.3898537,35.984669 C30.1830244,36.0933798 29.9276934,36.1477352 29.6230244,36.1477352 C29.0067178,36.1477352 28.5534774,35.9121951 28.2635819,35.4408362 C27.9736864,34.9697561 27.8287387,34.1901045 27.8287387,33.1027178 C27.8287387,32.015331 27.9736864,31.2303833 28.2635819,30.7481533 C28.5534774,30.2662021 29.0067178,30.0250871 29.6230244,30.0250871 C29.9059512,30.0250871 30.1467875,30.0830662 30.3463693,30.1990244 C30.5456725,30.3152613 30.7249059,30.4891986 30.8846272,30.721115 L30.9063693,30.721115 L30.9063693,28.2634146 L32.4071359,28.2634146 L32.4071359,36.0281533 L30.9715958,36.0281533 L30.9715958,35.408223 L30.9498537,35.408223 Z M29.4764042,34.543554 C29.5742439,34.8663415 29.7860906,35.0277352 30.1125017,35.0277352 C30.4458815,35.0277352 30.6616307,34.8663415 30.7594704,34.543554 C30.8573101,34.2210453 30.9063693,33.7407666 30.9063693,33.1027178 C30.9063693,32.4649477 30.8573101,31.9843902 30.7594704,31.6618815 C30.6616307,31.3393728 30.4458815,31.1777003 30.1125017,31.1777003 C29.7860906,31.1777003 29.5742439,31.3393728 29.4764042,31.6618815 C29.3782857,31.9843902 29.3295052,32.4649477 29.3295052,33.1027178 C29.3295052,33.7407666 29.3782857,34.2210453 29.4764042,34.543554 L29.4764042,34.543554 Z M34.6256725,33.9291986 C34.6401672,34.1831359 34.674453,34.4005575 34.7288084,34.5817422 C34.7834425,34.7629268 34.8648362,34.9045296 34.973547,35.0057143 C35.0822578,35.1074564 35.2272056,35.1581882 35.408669,35.1581882 C35.7130592,35.1581882 35.9232334,34.9987456 36.0394704,34.6795819 C36.1551498,34.3606969 36.2134077,33.8349826 36.2134077,33.1027178 C36.2134077,32.370453 36.1551498,31.8450174 36.0394704,31.5258537 C35.9232334,31.2069686 35.7130592,31.0472474 35.408669,31.0472474 C35.2272056,31.0472474 35.0822578,31.0982578 34.973547,31.1994425 C34.8648362,31.3011847 34.7834425,31.4425087 34.7288084,31.6236934 C34.674453,31.804878 34.6401672,32.0225784 34.6256725,32.2762369 C34.610899,32.5301742 34.6039303,32.8055749 34.6039303,33.1027178 C34.6039303,33.4001394 34.610899,33.6755401 34.6256725,33.9291986 L34.6256725,33.9291986 Z M33.2227456,31.7758885 C33.3024669,31.391777 33.4329199,31.0709408 33.6141045,30.8133798 C33.7952892,30.5563763 34.0330592,30.3604181 34.3265784,30.2263415 C34.6200976,30.0922648 34.9807944,30.0250871 35.408669,30.0250871 C35.858007,30.0178397 36.2315261,30.07777 36.528669,30.2045993 C36.8258118,30.3314286 37.0616307,30.5254355 37.2355679,30.7863415 C37.4095052,31.0472474 37.5327108,31.3700348 37.6054634,31.7541463 C37.6776585,32.1385366 37.7141742,32.5881533 37.7141742,33.1027178 C37.7141742,33.6030662 37.6743136,34.0451568 37.5945923,34.429547 C37.5145923,34.8139373 37.3841394,35.1347735 37.2029547,35.391777 C37.02177,35.649338 36.7842787,35.8397213 36.4907596,35.9629268 C36.1969617,36.0861324 35.8362648,36.1477352 35.408669,36.1477352 C34.9590523,36.1549826 34.5858118,36.098676 34.2883902,35.9790941 C33.9912474,35.8595122 33.7557073,35.6710801 33.5814913,35.4137979 C33.407554,35.1565157 33.2843484,34.8337282 33.2118746,34.4457143 C33.1394007,34.0579791 33.1031638,33.6103136 33.1031638,33.1027178 C33.1031638,32.6023693 33.1427456,32.1602787 33.2227456,31.7758885 L33.2227456,31.7758885 Z M40.9657422,29.4595122 L42.4665087,29.4595122 L42.4665087,28.1761672 L40.9657422,28.1761672 L40.9657422,29.4595122 Z M40.9657422,36.0281533 L42.4665087,36.0281533 L42.4665087,30.1772822 L40.9657422,30.1772822 L40.9657422,36.0281533 Z M45.2394704,28.5025784 L45.2394704,30.1772822 L46.1094355,30.1772822 L46.1094355,31.1994425 L45.2394704,31.1994425 L45.2394704,34.3643206 C45.2394704,34.5962369 45.2737561,34.7612544 45.3426063,34.8590941 C45.4114564,34.9569338 45.5547317,35.0057143 45.7721533,35.0057143 C45.8301324,35.0057143 45.8881115,35.0040418 45.9463693,35.0004181 C46.0043484,34.9967944 46.0587038,34.9914983 46.1094355,34.9839721 L46.1094355,36.0281533 C45.9424669,36.0281533 45.7813519,36.0334495 45.6255331,36.0443206 C45.4694355,36.0551916 45.3046969,36.0607666 45.1307596,36.0607666 C44.8405854,36.0607666 44.6030941,36.0406969 44.4182857,36.0008362 C44.2334774,35.9612544 44.0921533,35.8812544 43.9943136,35.7616725 C43.8964739,35.6420906 43.8292962,35.4843206 43.7930592,35.2886411 C43.7565436,35.0929617 43.7387038,34.8465505 43.7387038,34.5491289 L43.7387038,31.1994425 L42.9774495,31.1994425 L42.9774495,30.1772822 L43.7387038,30.1772822 L43.7387038,28.5025784 L45.2394704,28.5025784 Z M48.5885993,31.1994425 L48.5885993,30.1772822 L49.3498537,30.1772822 L49.3498537,29.5138676 C49.3498537,29.2529617 49.3860906,29.0319164 49.4588432,28.850453 C49.5310383,28.669547 49.634453,28.5243206 49.7685296,28.4156098 C49.9026063,28.306899 50.0676237,28.2291289 50.2635819,28.1817422 C50.4592613,28.1346341 50.6766829,28.1109408 50.9158467,28.1109408 C51.184,28.1109408 51.4524321,28.1218118 51.7205854,28.143554 L51.7205854,29.2094774 C51.6843484,29.20223 51.6336167,29.1986063 51.5683902,29.1986063 L51.4270662,29.1986063 C51.2166132,29.1986063 51.0683206,29.2348432 50.9813519,29.3073171 C50.8941045,29.3797909 50.8506202,29.4993728 50.8506202,29.6660627 L50.8506202,30.1772822 L51.7205854,30.1772822 L51.7205854,31.1994425 L50.8506202,31.1994425 L50.8506202,36.0281533 L49.3498537,36.0281533 L49.3498537,31.1994425 L48.5885993,31.1994425 Z M53.4605157,33.9291986 C53.4750105,34.1831359 53.5095749,34.4005575 53.5639303,34.5817422 C53.6182857,34.7629268 53.6999582,34.9045296 53.808669,35.0057143 C53.9173798,35.1074564 54.0623275,35.1581882 54.2435122,35.1581882 C54.5481812,35.1581882 54.7583554,34.9987456 54.8743136,34.6795819 C54.9902718,34.3606969 55.0482509,33.8349826 55.0482509,33.1027178 C55.0482509,32.370453 54.9902718,31.8450174 54.8743136,31.5258537 C54.7583554,31.2069686 54.5481812,31.0472474 54.2435122,31.0472474 C54.0623275,31.0472474 53.9173798,31.0982578 53.808669,31.1994425 C53.6999582,31.3011847 53.6182857,31.4425087 53.5639303,31.6236934 C53.5095749,31.804878 53.4750105,32.0225784 53.4605157,32.2762369 C53.4460209,32.5301742 53.4387735,32.8055749 53.4387735,33.1027178 C53.4387735,33.4001394 53.4460209,33.6755401 53.4605157,33.9291986 L53.4605157,33.9291986 Z M52.0578676,31.7758885 C52.1373101,31.391777 52.2680418,31.0709408 52.4492265,30.8133798 C52.6304111,30.5563763 52.8679024,30.3604181 53.1614216,30.2263415 C53.4552195,30.0922648 53.8156376,30.0250871 54.2435122,30.0250871 C54.6931289,30.0178397 55.0663693,30.07777 55.3637909,30.2045993 C55.6609338,30.3314286 55.8967526,30.5254355 56.0706899,30.7863415 C56.2446272,31.0472474 56.3678328,31.3700348 56.4403066,31.7541463 C56.5127805,32.1385366 56.5490174,32.5881533 56.5490174,33.1027178 C56.5490174,33.6030662 56.5091568,34.0451568 56.4294355,34.429547 C56.3497143,34.8139373 56.2192613,35.1347735 56.0380767,35.391777 C55.8566132,35.649338 55.6194007,35.8397213 55.3256028,35.9629268 C55.0320836,36.0861324 54.6713868,36.1477352 54.2435122,36.1477352 C53.7938955,36.1549826 53.4206551,36.098676 53.1235122,35.9790941 C52.8260906,35.8595122 52.5905505,35.6710801 52.4166132,35.4137979 C52.242676,35.1565157 52.1191916,34.8337282 52.0469965,34.4457143 C51.9742439,34.0579791 51.938007,33.6103136 51.938007,33.1027178 C51.938007,32.6023693 51.9778676,32.1602787 52.0578676,31.7758885 L52.0578676,31.7758885 Z M58.6805854,30.1772822 L58.6805854,30.9602787 L58.7023275,30.9602787 C58.8545226,30.6776307 59.0396098,30.4510105 59.2570314,30.2806969 C59.474453,30.1103833 59.7389826,30.0250871 60.050899,30.0250871 C60.0943833,30.0250871 60.1395401,30.0270383 60.1869268,30.0303833 C60.2337561,30.0342857 60.2791916,30.0395819 60.322676,30.0468293 L60.322676,31.4823693 C60.2429547,31.475122 60.1651847,31.4698258 60.0888084,31.4659233 C60.0127108,31.4625784 59.934662,31.4606272 59.8552195,31.4606272 C59.7244878,31.4606272 59.5940348,31.4787456 59.4635819,31.5149826 C59.3331289,31.5512195 59.213547,31.6111498 59.1048362,31.6944948 C58.9958467,31.7778397 58.908878,31.8865505 58.8436516,32.0206272 C58.7784251,32.1549826 58.7458118,32.3197213 58.7458118,32.5154007 L58.7458118,36.0281533 L57.2450453,36.0281533 L57.2450453,30.1772822 L58.6805854,30.1772822 Z M63.6503415,36.8220209 C63.9257422,36.8220209 64.1233728,36.749547 64.2429547,36.6045993 C64.3625366,36.4593728 64.433338,36.2673171 64.4550801,36.0281533 L62.8129895,30.1772822 L64.3789826,30.1772822 L65.2489477,34.2227178 L65.2706899,34.2227178 L66.0319443,30.1772822 L67.5327108,30.1772822 L66.1189129,35.6365157 C65.9884599,36.1223693 65.8633031,36.5156794 65.7437213,36.816446 C65.6241394,37.1172125 65.4828153,37.3494077 65.3197491,37.5124739 C65.1564042,37.6755401 64.9607247,37.7825784 64.7324321,37.8333101 C64.5041394,37.8840418 64.2159164,37.9094077 63.8677631,37.9094077 L63.2587038,37.9094077 L63.2587038,36.7894077 C63.3894355,36.8111498 63.5198885,36.8220209 63.6503415,36.8220209 L63.6503415,36.8220209 Z M69.3052544,33.9291986 C69.3197491,34.1831359 69.3540348,34.4005575 69.4083902,34.5817422 C69.4627456,34.7629268 69.5444181,34.9045296 69.6531289,35.0057143 C69.7618397,35.1074564 69.9067875,35.1581882 70.0882509,35.1581882 C70.3926411,35.1581882 70.6028153,34.9987456 70.7190523,34.6795819 C70.8347317,34.3606969 70.8929895,33.8349826 70.8929895,33.1027178 C70.8929895,32.370453 70.8347317,31.8450174 70.7190523,31.5258537 C70.6028153,31.2069686 70.3926411,31.0472474 70.0882509,31.0472474 C69.9067875,31.0472474 69.7618397,31.0982578 69.6531289,31.1994425 C69.5444181,31.3011847 69.4627456,31.4425087 69.4083902,31.6236934 C69.3540348,31.804878 69.3197491,32.0225784 69.3052544,32.2762369 C69.2904808,32.5301742 69.2835122,32.8055749 69.2835122,33.1027178 C69.2835122,33.4001394 69.2904808,33.6755401 69.3052544,33.9291986 L69.3052544,33.9291986 Z M67.9023275,31.7758885 C67.9820488,31.391777 68.1125017,31.0709408 68.2936864,30.8133798 C68.4748711,30.5563763 68.7123624,30.3604181 69.0061603,30.2263415 C69.2996794,30.0922648 69.6603763,30.0250871 70.0882509,30.0250871 C70.5375889,30.0178397 70.9108293,30.07777 71.2082509,30.2045993 C71.5053937,30.3314286 71.7412125,30.5254355 71.9151498,30.7863415 C72.0890871,31.0472474 72.2122927,31.3700348 72.2850453,31.7541463 C72.3572404,32.1385366 72.3937561,32.5881533 72.3937561,33.1027178 C72.3937561,33.6030662 72.3536167,34.0451568 72.2741742,34.429547 C72.1941742,34.8139373 72.0637213,35.1347735 71.8825366,35.391777 C71.7013519,35.649338 71.4638606,35.8397213 71.1703415,35.9629268 C70.8765436,36.0861324 70.5158467,36.1477352 70.0882509,36.1477352 C69.6386341,36.1549826 69.265115,36.098676 68.9679721,35.9790941 C68.6705505,35.8595122 68.4352892,35.6710801 68.2610732,35.4137979 C68.0871359,35.1565157 67.9639303,34.8337282 67.8914564,34.4457143 C67.8189826,34.0579791 67.7827456,33.6103136 67.7827456,33.1027178 C67.7827456,32.6023693 67.8223275,32.1602787 67.9023275,31.7758885 L67.9023275,31.7758885 Z M76.0692962,35.3429965 C75.9098537,35.6331707 75.7033031,35.8397213 75.4496446,35.9629268 C75.1957073,36.0861324 74.9058118,36.1477352 74.5794007,36.1477352 C74.1010732,36.1477352 73.7328502,36.0225784 73.4755679,35.7725436 C73.2182857,35.5225087 73.0895052,35.1038328 73.0895052,34.5165157 L73.0895052,30.1772822 L74.5902718,30.1772822 L74.5902718,34.2118467 C74.5902718,34.5165157 74.6410035,34.7286411 74.7427456,34.848223 C74.8442091,34.9678049 75.0072753,35.0277352 75.2319443,35.0277352 C75.7612822,35.0277352 76.0258118,34.7049477 76.0258118,34.0596516 L76.0258118,30.1772822 L77.5265784,30.1772822 L77.5265784,36.0281533 L76.0910383,36.0281533 L76.0910383,35.3429965 L76.0692962,35.3429965 Z M78.5052544,36.0281533 L79.9407944,36.0281533 L79.9407944,34.3317073 L78.5052544,34.3317073 L78.5052544,36.0281533 Z" id="Fill-52" fill="#221F20" mask="url(#mask-2)"></path>
                    <path d="M18.4003066,35.3429686 C18.2408641,35.6331429 18.0340348,35.8396934 17.7803763,35.962899 C17.526439,36.0861045 17.2365436,36.1477073 16.9104111,36.1477073 C16.4318049,36.1477073 16.0638606,36.0225505 15.8065784,35.7725157 C15.5492962,35.5224808 15.4205157,35.1038049 15.4205157,34.5164878 L15.4205157,30.1772544 L16.9212822,30.1772544 L16.9212822,34.2120976 C16.9212822,34.5164878 16.9720139,34.7286132 17.0734774,34.8481951 C17.1749408,34.967777 17.338007,35.0277073 17.5629547,35.0277073 C18.0920139,35.0277073 18.3568223,34.7051986 18.3568223,34.0596237 L18.3568223,30.1772544 L19.8575889,30.1772544 L19.8575889,36.0281254 L18.4220488,36.0281254 L18.4220488,35.3429686 L18.4003066,35.3429686 Z M21.8478328,34.3099373 C21.8478328,34.5635958 21.9147317,34.7684739 22.0488084,34.9242927 C22.182885,35.0803902 22.376892,35.1581603 22.6308293,35.1581603 C22.8627456,35.1581603 23.047554,35.1001812 23.1852544,34.984223 C23.3229547,34.8682648 23.3920836,34.6943275 23.3920836,34.4621324 C23.3920836,34.2737003 23.3374495,34.1304251 23.2287387,34.0325854 C23.1200279,33.9347456 22.9931986,33.8566969 22.8482509,33.7987178 L21.7931986,33.4179512 C21.3800976,33.2730035 21.0681812,33.0684042 20.858007,32.8035958 C20.6478328,32.5390662 20.5427456,32.2001115 20.5427456,31.7867317 C20.5427456,31.5475679 20.5823275,31.3209477 20.6623275,31.1071498 C20.7420488,30.8933519 20.868878,30.7065923 21.0428153,30.5471498 C21.2170314,30.3877073 21.4397491,30.260878 21.7118049,30.1663833 C21.9835819,30.072446 22.3116655,30.0250592 22.6960557,30.0250592 C23.3773101,30.0250592 23.8812822,30.1702857 24.2076934,30.4601812 C24.5338258,30.7500767 24.696892,31.1598328 24.696892,31.688892 L24.696892,31.9283345 L23.3483206,31.9283345 C23.3483206,31.6236655 23.2995401,31.400669 23.2017003,31.2593449 C23.1038606,31.1180209 22.9315958,31.0472195 22.6851847,31.0472195 C22.4964739,31.0472195 22.3317352,31.0999024 22.1901324,31.2049895 C22.0488084,31.3100767 21.9782857,31.4678467 21.9782857,31.6780209 C21.9782857,31.8232474 22.0234425,31.9537003 22.1140348,32.0696585 C22.2046272,32.1856167 22.376892,32.2834564 22.6308293,32.3631777 L23.5334077,32.6675679 C24.0044878,32.8272892 24.3381463,33.0357909 24.5338258,33.2930732 C24.7295052,33.5503554 24.8273449,33.9004599 24.8273449,34.3425505 C24.8273449,34.6541882 24.7729895,34.9242927 24.6642787,35.1525854 C24.5555679,35.3811568 24.4050453,35.5712613 24.2129895,35.7234564 C24.0209338,35.8759303 23.7923624,35.9846411 23.5278328,36.0498676 C23.2630244,36.1150941 22.9714564,36.1477073 22.6525714,36.1477073 C22.2319443,36.1477073 21.8821185,36.1078467 21.6030941,36.0281254 C21.3237909,35.9484042 21.1027456,35.8288223 20.9396794,35.669101 C20.7766132,35.5099373 20.6623275,35.3156516 20.597101,35.0873589 C20.5318746,34.8590662 20.4992613,34.6034564 20.4992613,34.3208084 L20.4992613,34.1139791 L21.8478328,34.1139791 L21.8478328,34.3099373 Z" id="Fill-53" fill="#F5811F" mask="url(#mask-2)"></path>
                    <path d="M0,28.263331 L1.56599303,28.263331 L1.56599303,34.7447247 L4.33923345,34.7447247 L4.33923345,36.0280697 L0,36.0280697 L0,28.263331 Z M7.65602787,31.8466063 C7.63428571,31.6762927 7.59609756,31.5313449 7.54174216,31.4117631 C7.48738676,31.2919024 7.4112892,31.2015889 7.31344948,31.1397073 C7.21560976,31.0783833 7.09045296,31.0474425 6.93825784,31.0474425 C6.78606272,31.0474425 6.66090592,31.0817282 6.5630662,31.1505784 C6.46522648,31.2197073 6.3871777,31.3102997 6.32919861,31.4226341 C6.27121951,31.5349686 6.22940767,31.6601254 6.20432056,31.7978258 C6.17867596,31.9355261 6.1661324,32.0732265 6.1661324,32.2109268 L6.1661324,32.4392195 L7.6995122,32.4392195 C7.69226481,32.2148293 7.67777003,32.0171986 7.65602787,31.8466063 L7.65602787,31.8466063 Z M6.1661324,33.798662 C6.1661324,33.9725993 6.17867596,34.1412404 6.20432056,34.3043066 C6.22940767,34.4676516 6.27121951,34.6125993 6.32919861,34.7394286 C6.3871777,34.8662578 6.46327526,34.9677213 6.55749129,35.0438188 C6.65170732,35.1199164 6.76794425,35.1581045 6.9056446,35.1581045 C7.15930314,35.1581045 7.3441115,35.0675122 7.46034843,34.8863275 C7.57602787,34.7051429 7.65602787,34.4294634 7.6995122,34.0598467 L9.04808362,34.0598467 C9.01909408,34.7413798 8.83763066,35.2598467 8.50425087,35.6149686 C8.17059233,35.9700906 7.64515679,36.1476516 6.92738676,36.1476516 C6.38355401,36.1476516 5.95958188,36.0570592 5.65491289,35.8758746 C5.35052265,35.6946899 5.12557491,35.4555261 4.98062718,35.1581045 C4.83567944,34.8609617 4.74703833,34.5273031 4.71442509,34.1576864 C4.68181185,33.7877909 4.66536585,33.4181742 4.66536585,33.0482787 C4.66536585,32.6569199 4.69268293,32.2800557 4.74703833,31.9174077 C4.80139373,31.5550383 4.91010453,31.2322509 5.07317073,30.9496028 C5.23623693,30.666676 5.47010453,30.442007 5.77449477,30.2753171 C6.07916376,30.1086272 6.48501742,30.0250035 6.99261324,30.0250035 C7.42773519,30.0250035 7.78452962,30.0958049 8.06383275,30.2371289 C8.34285714,30.378453 8.56222997,30.5780348 8.72167247,30.8353171 C8.88111498,31.0925993 8.98982578,31.4045157 9.04808362,31.7705087 C9.10606272,32.1367805 9.13505226,32.5445854 9.13505226,32.9939233 L9.13505226,33.3312056 L6.1661324,33.3312056 L6.1661324,33.798662 Z M11.6362369,28.5024948 L11.6362369,30.1774774 L12.5062021,30.1774774 L12.5062021,31.1996376 L11.6362369,31.1996376 L11.6362369,34.3642369 C11.6362369,34.5964321 11.6705226,34.7611707 11.7396516,34.8590105 C11.8085017,34.9568502 11.9514983,35.0059094 12.1691986,35.0059094 C12.2271777,35.0059094 12.284878,35.0042369 12.3431359,35.0003345 C12.401115,34.9969895 12.4554704,34.9914146 12.5062021,34.9841672 L12.5062021,36.0280697 C12.3395122,36.0280697 12.1781185,36.0336446 12.0222997,36.0445157 C11.8662021,36.0553868 11.7014634,36.0606829 11.5275261,36.0606829 C11.2373519,36.0606829 11.0001394,36.0406132 10.8150523,36.0010314 C10.6302439,35.9611707 10.4889199,35.8811707 10.3910801,35.7615889 C10.2932404,35.642007 10.2260627,35.4842369 10.1898258,35.2885575 C10.1535889,35.092878 10.1354704,34.8464669 10.1354704,34.5490453 L10.1354704,31.1996376 L9.37421603,31.1996376 L9.37421603,30.1774774 L10.1354704,30.1774774 L10.1354704,28.5024948 L11.6362369,28.5024948 Z" id="Fill-54" fill="#221F20" mask="url(#mask-2)"></path>
                </g>
            </g>
        </g>
    </g>
</svg>
